# xmcd
# 
# Track frame offsets:
#     150
#     40875
#     71210
#     120560
#     158000
#     191870
#     224925
#     258422
#     300727
# 
# Disc length: 4332
# 
# Revision: 3
# Processed by: cddbd v1.5.2PL0 Copyright (c) Steve Scherf et al.
# Submitted via: BonkEnc v1.0.8
# 
DISCID=8b10ea09
DTITLE=Steve Smith, Richie Beirach, Billy Hart - Chantal`s Way
DYEAR=1996
DGENRE=Contemporary Jazz
TTITLE0=Chantal`s Way
TTITLE1=Blue Cave
TTITLE2=Stella By Starlight
TTITLE3=Kilauea
TTITLE4=All The Things You Are
TTITLE5=Distant Voices
TTITLE6=Elm
TTITLE7=You Don`t Now What Love Is
TTITLE8=Expression
EXTD=
EXTT0=
EXTT1=
EXTT2=
EXTT3=
EXTT4=
EXTT5=
EXTT6=
EXTT7=
EXTT8=
PLAYORDER=
